<svg xmlns="http://www.w3.org/2000/svg" width="1280" height="640" viewBox="0 0 1280 640">
  <rect width="1280" height="640" fill="#181819"/>
  <line x1="1110" y1="-20" x2="1260" y2="660" stroke="#F5C21B" stroke-opacity="0.35" stroke-width="2"/>
  <svg x="128" y="170.0" width="219.6" height="300" viewBox="300 120 710 970"><path fill="#F5C21B" d="M521.71 594.21C567.94 617.94 614.56 640.71 660.74 664.76C648.38 691.65 633.13 720.72 619.79 747.45L547.44 893L501.88 984.93C486.4 1016.04 479.27 1039.98 448.54 1059.58C442.17 1063.57 435.34 1066.77 428.2 1069.11C406.89 1076.07 383.42 1075.14 363.38 1064.71C345.87 1055.64 332.76 1039.91 327 1021.05C315.66 984.71 331.65 961.3 347.6 930.54L384.02 860.1L521.71 594.21Z"/><path fill="#F5C21B" d="M801.71 133.11C833.23 129.771 865.75 148.698 876.01 179.17C880.8 193.461 880.91 208.906 876.32 223.262C873.24 233.196 863.74 251.092 858.75 261.245L825.9 328.126L698.4 586.53C684.68 579.54 670.55 572.84 656.73 565.88C623 548.98 589.53 531.59 556.33 513.7L668.29 293.991L707.38 217.101C714.57 203.094 725.42 179.855 734.94 168.19C751.9 147.391 775.3 135.969 801.71 133.11Z"/><path fill="#fff" d="M676.48 243.338C672.58 244.926 666.15 246.187 661.82 247.274C597.83 261.852 461.39 309.422 425.35 366.608C417.93 378.379 414.11 391.888 417.3 405.693C426.1 443.71 481.08 480.12 512.75 499.59C561.96 529.84 614.02 555.66 665.8 581.16L759.41 626.84C819.51 656.82 997.88 742.28 939.46 837.14C905.49 892.29 805.47 922.52 746.68 935.93C683.92 950.47 618.58 956.67 555.11 959.12C552.83 958.81 552.78 958.88 550.59 957.87C633.42 948.2 782.74 920.13 837.87 854.34C848.15 842.08 855.03 827.45 853.39 811.13C846.47 742.09 666.45 656.12 608.39 626.78C566.75 605.74 524.69 585.51 483.36 563.86C441.51 541.94 398.9 518.78 362.32 488.64C341.81 471.74 318.22 447.81 315.7 419.93C314.03 401.475 321.76 385.028 333.42 371.169C385.41 309.382 520.04 272.098 597.53 256.135C617.48 252.025 638.18 247.512 658.47 245.71C664.71 244.745 670.18 243.959 676.48 243.338Z"/></svg>
  <g font-family="Inter" fill="#FFFFFF">
    <text x="420" y="268" font-size="30" font-weight="500" fill="#F5C21B" letter-spacing="0.5">Yellow Stick</text>
    <text x="416" y="350" font-size="88" font-weight="700" letter-spacing="-2">Hermuse Agent</text>
    <text x="420" y="410" font-size="32" font-weight="400" fill="rgba(242,247,255,0.72)">Your personal agent. It takes things off your plate.</text>
    <text x="420" y="468" font-size="22" font-weight="500" fill="rgba(241,246,255,0.45)" letter-spacing="0.3">Open source · Web · macOS · Windows · Linux · iOS · Android</text>
  </g>
</svg>
